<svg width="11" height="11" viewBox="0 0 11 11" fill="none" xmlns="http://www.w3.org/2000/svg">
<circle cx="5.5" cy="5.5" r="5.5" fill="white"/>
<path d="M1.44969 6.16089L1.4372 6.15801H6.79044L5.10758 7.93475C5.02517 8.0215 4.97997 8.139 4.97997 8.26234C4.97997 8.38567 5.02517 8.50235 5.10758 8.5893L5.36943 8.86529C5.45177 8.95204 5.5615 9 5.6785 9C5.79558 9 5.90536 8.95238 5.98771 8.86564L8.87245 5.82693C8.95512 5.73985 9.00032 5.62385 9 5.50045C9.00032 5.37636 8.95512 5.26029 8.87245 5.17334L5.98771 2.13436C5.90536 2.04769 5.79564 2 5.6785 2C5.5615 2 5.45177 2.04776 5.36943 2.13436L5.10758 2.41035C5.02517 2.49696 4.97997 2.61262 4.97997 2.73595C4.97997 2.85922 5.02517 2.96878 5.10758 3.05545L6.80943 4.84212H1.44371C1.2026 4.84212 1 5.06104 1 5.3149V5.70525C1 5.9591 1.20859 6.16089 1.44969 6.16089Z" fill="#10A7A7"/>
</svg>
