<svg width="145" height="39" viewBox="0 0 145 39" fill="none" xmlns="http://www.w3.org/2000/svg">
<path d="M50.9122 28.9768C50.6354 29.5879 50.2422 30.1267 49.7406 30.5971C49.2391 31.0675 48.6292 31.4414 47.911 31.7189C47.1928 31.9963 46.3984 32.137 45.5197 32.137C44.5768 32.137 43.7222 32.0284 42.9518 31.8154C42.1814 31.6023 41.5595 31.3128 41.0901 30.9469L41.8605 29.0813C42.1614 29.3387 42.6027 29.5759 43.1925 29.789C43.7823 30.0021 44.4604 30.1106 45.2308 30.1106C46.1937 30.1106 46.9681 29.8211 47.5579 29.2422C48.1477 28.6632 48.4406 27.9556 48.4406 27.1193C48.4406 26.2187 48.2039 25.5311 47.7345 25.0607C47.265 24.5903 46.5468 24.1722 45.5839 23.8063C44.7493 23.4846 44.0632 23.1348 43.5296 22.7609C42.9959 22.387 42.5827 21.989 42.2938 21.5708C42.0049 21.1527 41.8083 20.7225 41.7 20.2842C41.5916 19.846 41.5395 19.3997 41.5395 18.9494C41.5395 18.3061 41.6638 17.6949 41.9086 17.116C42.1533 16.537 42.5024 16.0344 42.9518 15.6042C43.4012 15.174 43.9428 14.8323 44.5728 14.5749C45.2027 14.3176 45.9169 14.189 46.7073 14.189C47.6061 14.189 48.3925 14.3136 49.0666 14.5669C49.7406 14.8162 50.3023 15.0976 50.7517 15.3992L50.0135 17.116C49.7567 16.923 49.3835 16.7139 48.89 16.4888C48.3965 16.2636 47.8107 16.151 47.1246 16.151C46.1616 16.151 45.4394 16.4204 44.958 16.9551C44.4765 17.4899 44.2357 18.1332 44.2357 18.881C44.2357 19.7173 44.5086 20.3646 45.0542 20.823C45.5999 21.2854 46.29 21.6754 47.1246 21.993C47.9592 22.3146 48.6493 22.6684 49.195 23.0504C49.7406 23.4364 50.174 23.8425 50.4949 24.2687C50.8159 24.6948 51.0366 25.1451 51.153 25.6156C51.2693 26.086 51.3295 26.5684 51.3295 27.059C51.3295 27.7304 51.1931 28.3657 50.9122 28.9768Z" fill="#2A2E42"/>
<path d="M62.1787 31.8632C61.2037 32.0883 60.1084 32.2009 58.8886 32.2009C56.6217 32.2009 54.9566 31.7466 53.8973 30.8339C52.8381 29.9212 52.3084 28.6748 52.3084 27.0867C52.3084 25.9287 52.5612 24.9678 53.0628 24.2079C53.5643 23.448 54.2544 22.8208 55.1331 22.3263C56.0118 21.8317 57.0309 21.4538 58.1985 21.1844C59.3661 20.915 60.6219 20.718 61.9701 20.5894V19.5279C61.9701 18.1971 61.613 17.2925 60.8948 16.81C60.1766 16.3275 59.2618 16.0863 58.1504 16.0863C57.3158 16.0863 56.5334 16.2109 55.8072 16.4562C55.0809 16.7014 54.4711 16.9427 53.9776 17.1799L53.3035 15.5073C53.797 15.2299 54.5032 14.9444 55.422 14.6549C56.3408 14.3654 57.4001 14.2207 58.5997 14.2207C59.3902 14.2207 60.1565 14.3172 60.8948 14.5102C61.633 14.7032 62.275 15.0128 62.8207 15.443C63.3664 15.8732 63.8037 16.4521 64.1367 17.1799C64.4697 17.9076 64.6342 18.8002 64.6342 19.8496V30.9786C63.9722 31.3445 63.1537 31.638 62.1787 31.8632ZM61.9701 22.0368C60.8787 22.1654 59.8997 22.3383 59.0331 22.5514C58.1664 22.7645 57.4402 23.054 56.8504 23.4199C56.2606 23.7858 55.8072 24.2562 55.4862 24.8351C55.1652 25.4141 55.0047 26.1418 55.0047 27.0224C55.0047 28.2888 55.3698 29.1935 56.0961 29.7403C56.8223 30.2871 57.8294 30.5605 59.1133 30.5605C59.671 30.5605 60.1926 30.5123 60.6861 30.4158C61.1797 30.3193 61.605 30.1745 61.9701 29.9815V22.0368Z" fill="#2A2E42"/>
<path d="M71.0379 16.3117V31.8795H68.2132V16.3117H66.2231V14.5426H68.2132V12.098C68.2132 11.2417 68.3416 10.4697 68.5984 9.78217C68.8552 9.09464 69.2284 8.51165 69.7219 8.02918C70.2154 7.54671 70.8253 7.18083 71.5515 6.93557C72.2777 6.69031 73.1123 6.58578 74.0552 6.63001V8.43124C73.2005 8.47547 72.4823 8.73681 71.9046 9.21928C71.3268 9.70176 71.0379 10.5541 71.0379 11.7764V14.5426H74.0552V16.3117H71.0379Z" fill="#2A2E42"/>
<path d="M77.2811 24.2883C77.4536 26.2625 77.9832 27.73 78.8699 28.6949C79.7567 29.6599 80.9844 30.1424 82.5452 30.1424C83.5282 30.1424 84.3748 30.0418 85.081 29.8368C85.7872 29.6317 86.3649 29.4026 86.8143 29.1452L87.5526 31.0108C87.0189 31.3325 86.3047 31.6099 85.418 31.8471C84.5313 32.0843 83.4961 32.2009 82.3205 32.2009C81.185 32.2009 80.1499 32.02 79.207 31.6541C78.2641 31.2882 77.4496 30.7374 76.7595 29.9976C76.0693 29.2578 75.5357 28.321 75.1545 27.1832C74.7774 26.0453 74.5848 24.7065 74.5848 23.1626C74.5848 21.683 74.7573 20.3843 75.0984 19.2706C75.4394 18.1569 75.9209 17.2241 76.5428 16.4723C77.1647 15.7204 77.8949 15.1575 78.7415 14.7836C79.5881 14.4097 80.523 14.2207 81.5502 14.2207C83.6245 14.2207 85.2455 14.9122 86.4131 16.2953C87.5807 17.6784 88.1504 19.8174 88.1303 22.7123L77.2811 24.2883ZM84.3788 17.3085C83.6767 16.4722 82.7057 16.0541 81.4699 16.0541C80.852 16.0541 80.2742 16.1828 79.7446 16.4401C79.211 16.6974 78.7536 17.0995 78.3684 17.6463C77.9832 18.1931 77.6863 18.8886 77.4736 19.737C77.261 20.5853 77.1647 21.5985 77.1848 22.7766L85.4341 21.5221C85.4341 19.552 85.081 18.1448 84.3788 17.3085Z" fill="#2A2E42"/>
<path d="M96.2512 31.9437C96.0065 32.008 95.7015 32.0402 95.3364 32.0402C94.546 32.0402 93.876 31.9115 93.3303 31.6542C92.7846 31.3969 92.3392 31.0592 91.9982 30.641C91.6571 30.2229 91.4084 29.7565 91.2599 29.2418C91.1115 28.7272 91.0352 28.2005 91.0352 27.6658V16.3115H89.0451V14.5425H91.0352V10.554L93.8599 9.68555V14.5425H96.8772V16.3115H93.8599V27.5733C93.8599 28.2568 94.0244 28.8478 94.3574 29.3383C94.6904 29.8288 95.2522 30.0741 96.0426 30.0741C96.191 30.0741 96.3315 30.0661 96.4599 30.05C96.5883 30.0339 96.7287 30.0098 96.8772 29.9776V31.7788C96.7046 31.8271 96.496 31.8794 96.2512 31.9437Z" fill="#2A2E42"/>
<path d="M105.207 16.4082C104.501 16.1951 103.782 16.1187 103.056 16.183C102.33 16.2473 101.728 16.4283 101.259 16.7298V31.8795H98.434V15.4754C98.8633 15.2623 99.2966 15.0733 99.7339 14.9125C100.171 14.7517 100.677 14.619 101.243 14.5104C101.808 14.4019 102.466 14.3295 103.217 14.2853C103.967 14.241 104.854 14.233 105.881 14.2531L105.207 16.4082Z" fill="#2A2E42"/>
<path d="M115.827 31.8632C114.852 32.0883 113.757 32.2009 112.537 32.2009C110.27 32.2009 108.605 31.7466 107.546 30.8339C106.487 29.9212 105.957 28.6748 105.957 27.0867C105.957 25.9287 106.21 24.9678 106.711 24.2079C107.213 23.448 107.903 22.8208 108.782 22.3263C109.66 21.8317 110.679 21.4538 111.847 21.1844C113.015 20.915 114.27 20.718 115.619 20.5894V19.5279C115.619 18.1971 115.262 17.2925 114.543 16.81C113.825 16.3275 112.91 16.0863 111.799 16.0863C110.964 16.0863 110.182 16.2109 109.456 16.4562C108.729 16.7014 108.12 16.9427 107.626 17.1799L106.952 15.5073C107.446 15.2299 108.152 14.9444 109.071 14.6549C109.989 14.3654 111.049 14.2207 112.248 14.2207C113.039 14.2207 113.805 14.3172 114.543 14.5102C115.282 14.7032 115.924 15.0128 116.469 15.443C117.015 15.8732 117.452 16.4521 117.785 17.1799C118.118 17.9076 118.283 18.8002 118.283 19.8496V30.9786C117.621 31.3445 116.802 31.638 115.827 31.8632ZM115.619 22.0368C114.527 22.1654 113.548 22.3383 112.682 22.5514C111.815 22.7645 111.089 23.054 110.499 23.4199C109.909 23.7858 109.456 24.2562 109.135 24.8351C108.814 25.4141 108.653 26.1418 108.653 27.0224C108.653 28.2888 109.018 29.1935 109.745 29.7403C110.471 30.2871 111.478 30.5605 112.762 30.5605C113.32 30.5605 113.841 30.5123 114.335 30.4158C114.828 30.3193 115.254 30.1745 115.619 29.9815V22.0368Z" fill="#2A2E42"/>
<path d="M129.886 31.8794L126.163 24.8353H126.099L122.311 31.8794H119.39L124.751 22.9054L119.968 14.5425H122.921L126.291 20.879H126.356L129.79 14.5425H132.454L127.639 22.6802L133 31.8794H129.886Z" fill="#2A2E42"/>
<path fill-rule="evenodd" clip-rule="evenodd" d="M19.4075 39L18.2079 38.0994C3.38639 26.9985 0.477465 8.3468 0.361108 7.55876L0 5.11021L2.46757 5.25897C2.71633 5.27505 2.97312 5.28309 3.22991 5.28309C9.85022 5.28309 18.3483 0.595052 18.4325 0.546804L19.4075 0L20.3825 0.542783C20.4668 0.591031 28.9649 5.27907 35.5852 5.27907C35.842 5.27907 36.0947 5.27103 36.3475 5.25495L38.8151 5.10619L38.454 7.55474C38.3376 8.34278 35.4287 26.9944 20.6112 38.0954L19.4075 39ZM4.80273 9.23536C5.98636 14.1486 9.7138 25.9853 19.4075 33.938C29.1253 25.9611 32.8367 14.1445 34.0123 9.23536C28.1142 8.75691 21.7949 5.79371 19.4035 4.57546C17.0202 5.79371 10.7008 8.75289 4.80273 9.23536Z" fill="white"/>
<path fill-rule="evenodd" clip-rule="evenodd" d="M19.4075 36.4911C5.07955 25.7561 2.34717 7.26527 2.34717 7.26527C9.71778 7.70754 19.4075 2.2998 19.4075 2.2998C19.4075 2.2998 29.0972 7.70754 36.4678 7.26527C36.4678 7.26527 33.7355 25.7561 19.4075 36.4911Z" fill="#94C33F"/>
<path fill-rule="evenodd" clip-rule="evenodd" d="M9.47302 25.5511C11.9125 29.4229 15.1464 33.2948 19.4035 36.4871C19.4075 36.4871 19.4075 36.4912 19.4115 36.4912C24.3787 32.7681 27.9537 28.1122 30.5015 23.6212C28.4272 20.0267 11.0017 18.4989 19.4075 14.418C15.7081 14.5949 13.2285 15.1939 13.1282 17.1801C13.0279 19.1663 18.5529 20.3645 18.5208 22.3828C18.4847 24.2202 13.1322 24.6786 9.47302 25.5511Z" fill="black"/>
<path fill-rule="evenodd" clip-rule="evenodd" d="M9.47311 25.5509C13.1323 24.6784 18.4848 24.216 18.5169 22.3786C18.5209 22.1173 18.4246 21.86 18.2601 21.6107C17.1767 20.0266 13.0401 18.8968 13.1243 17.1759C13.1765 16.1064 13.9228 15.439 15.1786 15.0249C13.0441 15.6039 12.3941 16.412 12.3941 17.2001C12.3901 19.4395 16.0573 20.3321 16.0372 21.7112C16.0172 23.0702 12.057 23.2189 8.40985 23.7858C8.74688 24.3728 9.09997 24.9599 9.47311 25.5509Z" fill="white"/>
<path fill-rule="evenodd" clip-rule="evenodd" d="M18.1236 15.1494C13.1123 18.6956 28.5556 20.2476 30.4976 23.6209C30.9149 22.8811 31.3081 22.1453 31.6732 21.4216C27.9578 19.166 15.299 18.4745 18.1236 15.1494Z" fill="white"/>
<path d="M136.468 7.716V12H137.038V10.17H138.43C138.57 10.17 138.682 10.192 138.766 10.236C138.85 10.276 138.918 10.332 138.97 10.404C139.022 10.472 139.06 10.554 139.084 10.65C139.108 10.742 139.128 10.84 139.144 10.944C139.164 11.048 139.176 11.154 139.18 11.262C139.184 11.37 139.188 11.472 139.192 11.568C139.196 11.66 139.204 11.744 139.216 11.82C139.232 11.896 139.26 11.956 139.3 12H139.936C139.876 11.928 139.83 11.846 139.798 11.754C139.77 11.658 139.748 11.558 139.732 11.454C139.716 11.35 139.706 11.244 139.702 11.136C139.698 11.028 139.692 10.922 139.684 10.818C139.672 10.714 139.654 10.614 139.63 10.518C139.61 10.422 139.576 10.336 139.528 10.26C139.484 10.18 139.422 10.112 139.342 10.056C139.266 10 139.166 9.96 139.042 9.936V9.924C139.302 9.852 139.49 9.718 139.606 9.522C139.726 9.326 139.786 9.098 139.786 8.838C139.786 8.49 139.67 8.216 139.438 8.016C139.21 7.816 138.892 7.716 138.484 7.716H136.468ZM138.226 9.69H137.038V8.196H138.454C138.722 8.196 138.916 8.264 139.036 8.4C139.156 8.536 139.216 8.712 139.216 8.928C139.216 9.084 139.188 9.212 139.132 9.312C139.08 9.408 139.008 9.486 138.916 9.546C138.828 9.602 138.724 9.64 138.604 9.66C138.484 9.68 138.358 9.69 138.226 9.69Z" fill="black"/>
<circle cx="138" cy="10" r="4.75" stroke="black" stroke-width="0.5"/>
</svg>
